<?xml version="1.0" encoding="UTF-8" standalone="no"?>
<svg
   width="1024"
   height="1024"
   viewBox="0 0 1024 1024"
   version="1.1"
   id="svg4"
   sodipodi:docname="mindskin-logo.svg"
   inkscape:version="1.4.3 (1:1.4.3+202512261035+0d15f75042)"
   xmlns:inkscape="http://www.inkscape.org/namespaces/inkscape"
   xmlns:sodipodi="http://sodipodi.sourceforge.net/DTD/sodipodi-0.dtd"
   xmlns="http://www.w3.org/2000/svg"
   xmlns:svg="http://www.w3.org/2000/svg">
  <defs
     id="defs4" />
  <sodipodi:namedview
     id="namedview4"
     pagecolor="#ffffff"
     bordercolor="#666666"
     borderopacity="1.0"
     inkscape:showpageshadow="2"
     inkscape:pageopacity="0.0"
     inkscape:pagecheckerboard="0"
     inkscape:deskcolor="#d1d1d1"
     inkscape:zoom="0.80566406"
     inkscape:cx="511.37939"
     inkscape:cy="512"
     inkscape:window-width="1920"
     inkscape:window-height="1027"
     inkscape:window-x="0"
     inkscape:window-y="25"
     inkscape:window-maximized="1"
     inkscape:current-layer="g4" />
  <g
     id="g4"
     transform="matrix(1.3718218,0,0,1.3718218,-190.60256,-192.27588)">
    <path
       fill="#080707"
       d="m 408.392,512.229 c 0.402,-0.018 0.804,-0.03 1.205,-0.037 48.537,-1.124 100.863,10.792 146.64,26.299 34.901,11.824 68.306,25.89 105.826,27.689 41.341,1.983 83.739,1.028 121.903,19.568 34.876,16.943 62.656,48.907 63.219,89.224 0.317,20.545 -7.597,40.363 -21.98,55.037 -39.122,40.074 -99.478,40.659 -151.159,33.935 -31.754,-4.132 -57.615,-7.73 -89.922,-7.42 -22.116,0.33 -53.64,4.162 -75.006,9.681 -26.168,6.76 -52.243,15.156 -78.755,21.406 -24.374,5.862 -49.257,9.358 -74.302,10.439 -149.177,5.956 -244.644,-84.827 -124.592,-213.666 48.249,-51.781 107.479,-70.256 176.923,-72.155 z"
       id="path2"
       style="fill:#0f2b40;fill-opacity:1;stroke:#0c1a25;stroke-width:10;stroke-dasharray:none;stroke-opacity:1" />
    <path
       fill="#080707"
       d="m 643.713,323.169 c 16.444,-2.088 33.676,7.895 38.472,23.639 4.999,16.411 7.107,27.921 17.537,42.34 9.815,13.568 23.464,21.482 34.501,33.391 12.83,14.346 22.507,35.151 20.913,54.52 -4.476,54.402 -62.232,76.536 -109.851,64.551 -8.422,-2.12 -15.286,-4.712 -23.302,-7.463 -23.405,-8.033 -45.749,-18.578 -69.545,-25.421 -33.157,-9.92 -64.267,-14.442 -98.814,-16.659 -44.608,-3.141 -102.573,2.156 -138.769,-25.725 -39.862,-34.172 -12.849,-79.758 28.456,-95.874 49.958,-19.492 85.797,-6.017 135.966,-3.061 22.152,1.493 44.404,-0.043 66.141,-4.564 16.627,-3.411 32.736,-8.979 47.92,-16.563 17.487,-8.74 29.727,-20.38 50.375,-23.111 z"
       id="path3"
       style="fill:#aa4400;stroke:#532b10;stroke-width:8;stroke-dasharray:none;stroke-opacity:1" />
    <path
       fill="#080707"
       d="m 552.918,226.2 c 14.205,-1.418 29.637,3.279 41.683,10.632 39.939,24.379 31.307,64.313 -6.166,86.107 -35.227,20.487 -74.595,26.024 -114.728,23.358 -26.086,-2.048 -64.9,-9.981 -69.83,-41.047 -2.515,-15.85 12.005,-31.187 25.727,-36.681 15.937,-6.382 31.957,-6.08 47.928,-12.282 27.69,-10.754 44.529,-26.737 75.386,-30.087 z"
       id="path4"
       style="fill:#2d5215;stroke:#192d0d;stroke-width:5;stroke-dasharray:none;stroke-opacity:1;fill-opacity:1" />
  </g>
</svg>
